<svg width="30" height="30" viewBox="0 0 30 30" fill="none" xmlns="http://www.w3.org/2000/svg">
<path d="M21.2496 15.0001C21.2496 18.7932 20.4796 22.1975 19.2627 24.6313C18.0278 27.101 16.4329 28.4001 14.8496 28.4001C13.2663 28.4001 11.6714 27.101 10.4365 24.6313C9.2196 22.1975 8.44961 18.7932 8.44961 15.0001C8.44961 11.2071 9.2196 7.80279 10.4365 5.36896C11.6714 2.89924 13.2663 1.60012 14.8496 1.60012C16.4329 1.60012 18.0278 2.89924 19.2627 5.36896C20.4796 7.80279 21.2496 11.2071 21.2496 15.0001Z" stroke="#FFF1CE" stroke-width="1.2"/>
<path d="M19.3746 19.5256C16.6925 22.2077 13.7408 24.0704 11.1593 24.9309C8.53981 25.8041 6.49341 25.5949 5.37385 24.4754C4.25429 23.3558 4.04511 21.3094 4.91829 18.6899C5.77878 16.1084 7.64151 13.1567 10.3236 10.4746C13.0057 7.79255 15.9574 5.92982 18.5388 5.06933C21.1583 4.19615 23.2047 4.40533 24.3243 5.52489C25.4439 6.64445 25.653 8.69085 24.7799 11.3104C23.9194 13.8919 22.0567 16.8435 19.3746 19.5256Z" stroke="#FFF1CE" stroke-width="1.2"/>
<path d="M14.8496 8.60012C18.6427 8.60012 22.0469 9.37012 24.4808 10.587C26.9505 11.8219 28.2496 13.4168 28.2496 15.0001C28.2496 16.5834 26.9505 18.1784 24.4808 19.4132C22.0469 20.6301 18.6427 21.4001 14.8496 21.4001C11.0566 21.4001 7.65227 20.6301 5.21844 19.4132C2.74872 18.1784 1.44961 16.5834 1.44961 15.0001C1.44961 13.4168 2.74872 11.8219 5.21844 10.587C7.65227 9.37012 11.0566 8.60012 14.8496 8.60012Z" stroke="#FFF1CE" stroke-width="1.2"/>
<path d="M19.3747 10.4746C22.0568 13.1567 23.9195 16.1084 24.78 18.6898C25.6532 21.3094 25.444 23.3558 24.3245 24.4753C23.2049 25.5949 21.1585 25.8041 18.539 24.9309C15.9575 24.0704 13.0058 22.2077 10.3238 19.5256C7.64167 16.8435 5.77894 13.8918 4.91845 11.3104C4.04528 8.69083 4.25445 6.64443 5.37401 5.52487C6.49357 4.40531 8.53997 4.19613 11.1595 5.06931C13.741 5.9298 16.6926 7.79253 19.3747 10.4746Z" stroke="#FFF1CE" stroke-width="1.2"/>
</svg>
